<?xml version="1.0" standalone="no"?>
<!DOCTYPE svg PUBLIC "-//W3C//DTD SVG 20010904//EN"
 "http://www.w3.org/TR/2001/REC-SVG-20010904/DTD/svg10.dtd">
<svg version="1.0" xmlns="http://www.w3.org/2000/svg"
 width="128.000000pt" height="128.000000pt" viewBox="0 0 128.000000 128.000000"
 preserveAspectRatio="xMidYMid meet">

<g transform="translate(0.000000,128.000000) scale(0.100000,-0.100000)"
fill="#000000" stroke="none">
<path d="M0 1128 c0 -127 2 -149 13 -134 9 12 23 17 42 14 24 -2 79 -57 304
-303 150 -165 277 -300 281 -300 4 0 131 135 281 300 225 246 280 301 304 303
19 3 33 -2 42 -14 11 -15 13 7 13 134 l0 152 -640 0 -640 0 0 -152z"/>
<path d="M0 470 l0 -470 640 0 640 0 0 470 0 469 -303 -332 c-260 -286 -307
-332 -334 -335 -29 -3 -47 14 -294 285 -144 158 -282 309 -306 335 l-43 47 0
-469z"/>
</g>
</svg>
